<svg version="1.0" xmlns="http://www.w3.org/2000/svg"
 width="277.000000pt" height="277.000000pt" viewBox="0 0 247.000000 247.000000"
 preserveAspectRatio="xMidYMid meet">

<g transform="translate(0.000000,796.000000) scale(0.100000,-0.100000)"
fill="#CC0033" stroke="none">

<path d="M725 7504 c-195 -42 -366 -175 -450 -349 -51 -105 -68 -190 -63
-315 8 -167 65 -304 178 -420 71 -74 139 -116 277 -174 209 -88 404 -228 435
-312 l12 -34 121 0 121 0 17 39 c39 89 227 221 437 310 199 84 305 175 380
326 53 107 71 181 72 295 0 117 -20 198 -75 305 -78 150 -217 264 -387 317
-112 35 -275 32 -385 -6 -44 -15 -102 -41 -129 -57 l-48 -30 -77 39 c-42 22
-101 47 -131 56 -81 24 -221 29 -305 10z m271 -263 c76 -27 152 -88 198 -160
l39 -59 81 35 c44 19 96 42 114 50 l33 14 -25 46 c-14 25 -26 47 -26 49 0 8
111 42 155 48 76 11 182 -17 255 -65 69 -47 110 -95 148 -176 24 -51 27 -70
27 -158 0 -94 -2 -105 -33 -168 -36 -73 -108 -152 -163 -179 -19 -9 -92 -44
-163 -77 -140 -66 -300 -168 -355 -225 -19 -20 -40 -36 -46 -36 -6 0 -27 16
-46 36 -72 75 -301 212 -447 266 -117 44 -196 114 -246 218 -28 59 -31 74 -31
165 0 92 3 106 32 167 91 192 298 279 499 209z"/>

</g>
</svg>
