<svg version="1.0" xmlns="http://www.w3.org/2000/svg"
 width="577.000000pt" height="657.000000pt" viewBox="0 0 577.000000 657.000000"
 preserveAspectRatio="xMidYMid meet">

<g transform="translate(0.000000,736.000000) scale(0.100000,-0.100000)"
fill="#CC0033" stroke="none">
<path d="M680 5398 l0 -1963 540 540 c297 297 540 544 540 550 0 5 -37 47 -82
92 l-83 83 -332 -332 -333 -333 0 1538 0 1537 1625 0 1625 0 0 -1185 0 -1185
-1075 0 -1075 0 0 -125 0 -125 1195 0 1195 0 0 1435 0 1435 -1870 0 -1870 0 0
-1962z"/>
<path d="M2025 6704 c-195 -42 -366 -175 -450 -349 -51 -105 -68 -190 -63
-315 8 -167 65 -304 178 -420 71 -74 139 -116 277 -174 209 -88 404 -228 435
-312 l12 -34 121 0 121 0 17 39 c39 89 227 221 437 310 199 84 305 175 380
326 53 107 71 181 72 295 0 117 -20 198 -75 305 -78 150 -217 264 -387 317
-112 35 -275 32 -385 -6 -44 -15 -102 -41 -129 -57 l-48 -30 -77 39 c-42 22
-101 47 -131 56 -81 24 -221 29 -305 10z m271 -263 c76 -27 152 -88 198 -160
l39 -59 81 35 c44 19 96 42 114 50 l33 14 -25 46 c-14 25 -26 47 -26 49 0 8
111 42 155 48 76 11 182 -17 255 -65 69 -47 110 -95 148 -176 24 -51 27 -70
27 -158 0 -94 -2 -105 -33 -168 -36 -73 -108 -152 -163 -179 -19 -9 -92 -44
-163 -77 -140 -66 -300 -168 -355 -225 -19 -20 -40 -36 -46 -36 -6 0 -27 16
-46 36 -72 75 -301 212 -447 266 -117 44 -196 114 -246 218 -28 59 -31 74 -31
165 0 92 3 106 32 167 91 192 298 279 499 209z"/>
<path d="M4680 6475 l0 -125 75 0 75 0 0 -1482 0 -1483 -348 348 -347 347
-1058 0 -1057 0 0 115 0 115 -125 0 -125 0 0 -235 0 -235 1127 0 1128 0 527
-527 528 -528 0 1908 0 1907 -200 0 -200 0 0 -125z"/>
<path d="M260 2262 c0 -10 -235 -1346 -246 -1395 l-6 -27 191 0 c190 0 191 0
196 23 6 30 75 483 75 496 0 7 26 11 64 11 l65 0 45 -142 c24 -79 62 -198 83
-265 l38 -123 201 0 201 0 -90 287 -90 287 24 15 c47 29 116 109 143 164 34
69 78 277 79 377 2 145 -61 229 -204 276 -46 15 -104 18 -411 22 -228 2 -358
0 -358 -6z m527 -322 c45 -27 63 -68 63 -142 0 -76 -28 -132 -80 -162 -28 -17
-57 -22 -149 -25 -93 -3 -113 -1 -109 10 3 8 16 87 29 177 l23 162 96 0 c77 0
101 -4 127 -20z"/>
<path d="M2956 2262 c-3 -5 -59 -316 -126 -693 -66 -376 -123 -696 -126 -711
l-6 -28 181 0 c113 0 181 4 181 10 0 21 132 756 138 774 5 12 29 -57 73 -215
l65 -234 134 0 133 0 144 225 c150 235 165 255 158 224 -10 -44 -135 -756
-135 -769 0 -13 28 -15 178 -15 l177 0 123 702 c68 387 126 711 128 721 5 16
-8 17 -183 17 l-189 0 -231 -346 -231 -346 -45 144 c-25 78 -74 234 -108 346
l-63 202 -182 0 c-101 0 -185 -4 -188 -8z"/>
<path d="M1555 2238 c-18 -81 -167 -946 -172 -1005 -14 -169 49 -307 167 -368
95 -49 155 -60 315 -59 170 1 262 20 364 74 114 61 211 188 256 335 14 44 61
285 105 535 44 250 83 467 86 483 l6 27 -181 0 c-100 0 -181 -3 -181 -7 0 -4
-38 -222 -85 -486 -53 -297 -93 -498 -106 -528 -38 -88 -106 -129 -217 -129
-64 0 -112 19 -140 55 -36 46 -29 122 58 611 44 247 80 457 80 467 0 16 -15
17 -175 17 -173 0 -175 0 -180 -22z"/>
<path d="M4575 1578 c3 -376 8 -698 11 -716 l5 -32 317 2 317 3 271 713 271
712 -195 -2 -194 -3 -187 -535 c-182 -519 -188 -535 -215 -538 l-27 -3 7 540
7 541 -197 0 -197 0 6 -682z"/>
</g>
</svg>
